<?xml version="1.0" standalone="no"?><!DOCTYPE svg PUBLIC "-//W3C//DTD SVG 20010904//EN"
 "http://www.w3.org/TR/2001/REC-SVG-20010904/DTD/svg10.dtd"><svg version="1.0" xmlns="http://www.w3.org/2000/svg"
 width="512.000000pt" height="512.000000pt" viewBox="0 0 512.000000 512.000000"
 preserveAspectRatio="xMidYMid meet"><g transform="translate(0.000000,512.000000) scale(0.100000,-0.100000)"
fill="#000000" stroke="none"><path d="M2325 5109 c-592 -61 -1119 -304 -1539 -709 -423 -409 -682 -925
-762 -1520 -20 -150 -22 -459 -5 -605 56 -457 226 -884 493 -1240 70 -92 371
-401 470 -481 237 -191 564 -360 869 -449 241 -70 446 -98 714 -98 400 1 768
85 1120 258 999 489 1569 1572 1406 2670 -104 699 -494 1326 -1075 1729 -321
223 -687 368 -1079 427 -153 23 -473 33 -612 18z m351 -1153 c57 -27 115 -81
138 -131 31 -65 36 -140 36 -556 l0 -419 419 0 c416 0 491 -5 556 -36 50 -23
104 -81 131 -138 62 -133 0 -308 -131 -370 -65 -31 -140 -36 -556 -36 l-418 0
-3 -457 c-3 -444 -4 -459 -24 -504 -27 -57 -86 -118 -139 -144 -51 -24 -152
-31 -212 -15 -68 19 -136 78 -169 147 l-29 58 -3 457 -3 457 -458 3 -457 3
-59 30 c-100 51 -155 142 -155 257 0 112 58 206 158 255 l57 28 458 3 457 3 0
427 c0 467 4 510 57 582 36 48 59 67 118 96 69 33 160 33 231 0z"/></g></svg>
